<?xml version="1.0" standalone="no"?>
<!DOCTYPE svg PUBLIC "-//W3C//DTD SVG 20010904//EN"
 "http://www.w3.org/TR/2001/REC-SVG-20010904/DTD/svg10.dtd">
<svg version="1.0" xmlns="http://www.w3.org/2000/svg"
 width="827.000000pt" height="875.000000pt" viewBox="0 0 827.000000 875.000000"
 preserveAspectRatio="xMidYMid meet">
<metadata>
Created by potrace 1.16, written by Peter Selinger 2001-2019
</metadata>
<g transform="translate(0.000000,875.000000) scale(0.100000,-0.100000)"
fill="#000000" stroke="none">
<path d="M3920 8743 c-928 -49 -1775 -367 -2480 -929 -163 -130 -462 -426
-588 -582 -460 -568 -729 -1190 -827 -1912 -25 -180 -31 -591 -11 -790 107
-1119 694 -2106 1651 -2778 563 -396 1234 -648 1965 -739 208 -26 802 -26
1010 0 856 107 1611 427 2244 952 463 385 847 892 1080 1426 146 336 239 686
288 1079 20 165 17 672 -5 840 -98 724 -354 1323 -816 1905 -126 159 -433 465
-601 599 -148 118 -389 282 -544 371 -480 274 -1048 461 -1609 530 -238 29
-536 40 -757 28z m690 -67 c994 -116 1866 -534 2536 -1218 291 -296 511 -603
693 -968 179 -361 288 -702 347 -1095 31 -208 44 -632 25 -842 -92 -1019 -598
-1942 -1428 -2608 -121 -97 -401 -285 -540 -364 -1100 -620 -2459 -719 -3653
-264 -159 61 -419 183 -563 264 -1002 569 -1693 1500 -1911 2574 -52 255 -61
366 -61 720 1 352 8 440 61 705 192 968 790 1838 1661 2418 565 377 1262 622
1933 681 69 6 143 13 165 15 95 9 608 -4 735 -18z"/>
<path d="M2615 6983 c-11 -3 -53 -19 -93 -35 -72 -30 -74 -30 -161 -19 -195
25 -435 7 -656 -49 -343 -86 -592 -241 -771 -479 -155 -206 -224 -424 -224
-700 0 -204 40 -322 138 -412 184 -168 554 -79 611 147 7 26 10 48 8 50 -2 2
-15 -11 -28 -30 -32 -45 -62 -67 -129 -95 -45 -19 -67 -23 -125 -19 -87 6
-144 33 -207 100 -91 95 -126 215 -115 393 23 362 209 616 592 807 262 131
374 158 755 183 l95 6 -77 -71 c-172 -158 -283 -358 -372 -668 -94 -324 -130
-601 -181 -1392 -23 -361 -60 -625 -130 -940 -40 -179 -54 -230 -61 -230 -3 0
-49 13 -102 30 -316 97 -466 92 -584 -18 -66 -61 -88 -124 -88 -246 0 -122 24
-200 88 -286 84 -113 179 -159 342 -168 117 -6 188 8 281 55 70 35 170 123
234 207 l30 39 82 -41 c226 -114 543 -220 750 -251 623 -94 991 351 1102 1334
28 242 43 645 31 827 -30 455 -138 867 -315 1206 -167 319 -443 567 -743 666
-62 21 -59 30 23 77 47 27 47 33 0 22z m-84 -204 c175 -56 327 -156 471 -307
108 -114 179 -221 262 -392 133 -278 200 -503 258 -872 19 -124 22 -180 22
-418 -1 -391 -41 -755 -109 -1006 -114 -419 -326 -669 -617 -728 -170 -35
-219 -23 -548 136 -107 52 -256 121 -330 153 -74 33 -136 60 -138 61 -2 1 15
58 37 127 154 472 251 1138 251 1717 0 565 71 999 214 1314 42 92 134 236 150
236 7 0 42 -9 77 -21z m-1366 -3363 c70 -28 230 -112 253 -132 2 -1 -11 -33
-29 -71 -21 -43 -56 -91 -94 -129 -78 -79 -121 -92 -242 -76 -104 14 -175 50
-218 111 -27 39 -30 51 -33 134 -2 75 0 99 16 127 48 90 180 103 347 36z"/>
<path d="M5995 6872 c-162 -85 -268 -168 -345 -271 -163 -216 -202 -609 -77
-773 72 -94 163 -139 324 -161 l97 -12 13 -50 c15 -62 76 -185 143 -290 l51
-80 -53 -45 c-302 -256 -457 -501 -529 -839 -27 -127 -36 -371 -19 -523 50
-459 285 -844 603 -988 133 -60 214 -75 407 -74 149 0 187 4 255 22 291 80
510 285 585 546 15 52 15 64 2 100 -25 75 -33 74 -62 -7 -85 -230 -291 -408
-544 -467 -311 -73 -547 0 -694 214 -104 149 -168 314 -197 506 -19 123 -19
368 0 495 47 313 201 685 367 889 l24 28 67 -21 c96 -29 234 -38 274 -18 68
36 109 115 101 198 -9 91 -79 149 -190 157 -48 4 -67 0 -123 -27 -37 -17 -79
-40 -95 -51 -15 -11 -32 -20 -37 -20 -13 0 -113 323 -113 367 0 5 37 14 81 21
354 56 674 283 790 562 60 142 74 318 34 431 -63 181 -270 235 -552 143 -295
-96 -467 -265 -556 -550 -32 -101 -57 -266 -57 -373 l0 -81 -63 0 c-51 0 -76
6 -126 31 -110 55 -145 124 -143 284 2 169 43 304 133 437 43 63 206 233 288
301 25 21 40 37 35 37 -5 0 -49 -22 -99 -48z m968 -179 c68 -39 84 -136 47
-272 -88 -315 -380 -550 -722 -578 l-70 -6 7 69 c40 401 196 665 458 771 115
47 217 52 280 16z m-291 -1410 c24 -21 23 -68 -2 -93 -15 -15 -33 -20 -76 -20
-57 0 -145 18 -143 29 0 3 25 27 55 54 48 42 60 47 101 47 29 0 53 -6 65 -17z"/>
<path d="M4345 5166 c-40 -17 -92 -77 -117 -135 -32 -71 -36 -197 -9 -292 29
-105 28 -159 -5 -190 -42 -39 -138 -189 -166 -260 -80 -199 -77 -453 7 -620
32 -63 112 -149 169 -183 75 -44 150 -59 250 -52 97 7 89 3 241 110 28 19 56
35 63 36 7 0 30 -13 50 -29 20 -16 57 -40 82 -53 89 -46 277 -31 288 23 2 13
-14 18 -82 28 -47 6 -102 19 -123 27 -49 21 -131 75 -137 91 -3 7 12 45 34 85
67 125 99 238 115 410 9 84 20 163 25 176 15 35 5 42 -66 42 -69 0 -74 -5 -48
-46 36 -55 -4 -327 -73 -489 -16 -37 -37 -73 -47 -79 -22 -14 -35 2 -123 154
-36 63 -76 129 -88 145 -12 17 -63 116 -112 220 -66 140 -104 236 -142 365
-49 161 -53 181 -48 248 9 117 52 169 148 178 46 5 62 2 109 -23 63 -33 116
-102 126 -165 4 -21 11 -37 17 -35 9 3 57 128 57 148 0 4 -8 10 -17 13 -10 3
-49 36 -88 74 -47 45 -83 71 -111 80 -53 16 -141 15 -179 -2z m-15 -777 c16
-31 45 -96 65 -144 39 -92 240 -456 285 -515 15 -19 29 -43 33 -52 11 -30 -38
-74 -121 -109 -224 -96 -432 17 -498 272 -24 92 -24 276 -1 354 22 73 86 184
141 243 46 50 45 51 96 -49z"/>
<path d="M4248 4393 c-43 -46 -97 -143 -120 -216 -17 -58 -20 -86 -15 -180 3
-72 12 -133 24 -172 l20 -60 -5 125 c-7 177 26 287 123 414 34 45 35 49 23 82
-6 19 -15 34 -18 34 -4 0 -18 -12 -32 -27z"/>
<path d="M4401 5027 c-47 -17 -70 -52 -81 -124 -7 -54 -5 -73 18 -148 l27 -86
0 108 c0 155 19 184 135 209 l55 12 -45 21 c-51 24 -62 24 -109 8z"/>
<path d="M5046 4228 c-3 -29 -6 -74 -6 -100 0 -99 -41 -241 -108 -374 l-41
-81 30 -17 c17 -10 32 -16 33 -14 10 10 52 101 73 156 33 89 50 178 58 307 4
61 13 125 21 143 l13 32 -33 0 c-33 0 -33 -1 -40 -52z"/>
<path d="M4678 3466 c-87 -57 -105 -65 -164 -71 -68 -8 -173 -3 -209 10 l-20
7 20 -17 c11 -9 51 -25 89 -37 58 -17 84 -20 159 -14 97 6 108 11 229 97 l58
41 -29 24 c-16 13 -30 24 -32 24 -2 0 -48 -29 -101 -64z"/>
<path d="M5145 3434 c-24 -13 -48 -15 -120 -11 l-90 5 52 -24 c71 -34 167 -42
227 -19 43 17 74 40 65 50 -3 2 -27 6 -54 10 -37 4 -58 2 -80 -11z"/>
</g>
</svg>
